<mxfile host="app.diagrams.net" agent="Mozilla/5.0 (Windows NT 10.0; Win64; x64) AppleWebKit/537.36 (KHTML, like Gecko) Chrome/135.0.0.0 Safari/537.36" version="26.2.14">
  <diagram name="Arquitetura" id="3i2wNnuogsfl_B2IOIUK">
    <mxGraphModel grid="1" page="1" gridSize="10" guides="1" tooltips="1" connect="1" arrows="1" fold="1" pageScale="1" pageWidth="1169" pageHeight="827" background="none" math="0" shadow="0">
      <root>
        <mxCell id="0" />
        <mxCell id="1" parent="0" />
        <mxCell id="ezhQoP1_snbLGTf0vXiV-1" value="Easy Collection - &lt;font style=&quot;font-size: 31px;&quot;&gt;Arquitetura do Sistema&lt;/font&gt;" style="text;html=1;align=left;verticalAlign=middle;whiteSpace=wrap;rounded=0;fontSize=43;fontStyle=1" vertex="1" parent="1">
          <mxGeometry x="35" y="7" width="932" height="65" as="geometry" />
        </mxCell>
        <mxCell id="ezhQoP1_snbLGTf0vXiV-3" value="&lt;b&gt;&lt;font style=&quot;font-size: 24px;&quot;&gt;Desenvolvedor:&lt;/font&gt;&lt;/b&gt;&lt;div&gt;&lt;ul&gt;&lt;li&gt;&lt;font style=&quot;font-size: 20px;&quot;&gt;Gabriel Antônio Maida&lt;/font&gt;&lt;/li&gt;&lt;/ul&gt;&lt;/div&gt;" style="text;html=1;whiteSpace=wrap;overflow=hidden;rounded=0;spacing=2;fontSize=18;" vertex="1" parent="1">
          <mxGeometry x="37" y="256" width="250" height="100" as="geometry" />
        </mxCell>
        <mxCell id="ezhQoP1_snbLGTf0vXiV-4" value="&lt;div&gt;&lt;font style=&quot;font-size: 22px;&quot;&gt;&lt;b&gt;Objetivo Geral:&lt;/b&gt;&lt;/font&gt;&lt;/div&gt;&lt;div&gt;&lt;ul&gt;&lt;li&gt;Servir como um&amp;nbsp;&lt;span style=&quot;background-color: transparent; color: light-dark(rgb(0, 0, 0), rgb(255, 255, 255));&quot;&gt;gerenciador de coleções tanto para c&lt;/span&gt;olecionadores como qualquer outra pessoa de forma fácil, intuitiva e visual&lt;/li&gt;&lt;/ul&gt;&lt;/div&gt;" style="text;html=1;whiteSpace=wrap;overflow=hidden;rounded=0;spacing=2;fontSize=18;" vertex="1" parent="1">
          <mxGeometry x="340" y="84" width="310" height="176" as="geometry" />
        </mxCell>
        <mxCell id="ezhQoP1_snbLGTf0vXiV-5" value="&lt;div&gt;&lt;b&gt;&lt;font style=&quot;font-size: 22px;&quot;&gt;Objetivos Específicos:&lt;/font&gt;&lt;/b&gt;&lt;/div&gt;&lt;div&gt;&lt;ul&gt;&lt;li&gt;&lt;span style=&quot;background-color: transparent; color: light-dark(rgb(0, 0, 0), rgb(255, 255, 255));&quot;&gt;&lt;font style=&quot;font-size: 18px;&quot;&gt;Cadastro/Login&lt;/font&gt;&lt;/span&gt;&lt;/li&gt;&lt;li&gt;&lt;font style=&quot;font-size: 18px;&quot;&gt;&lt;span style=&quot;background-color: transparent; color: light-dark(rgb(0, 0, 0), rgb(255, 255, 255));&quot;&gt;Permitir a criação de coleções&amp;nbsp;&lt;/span&gt;&lt;span style=&quot;background-color: transparent; color: light-dark(rgb(0, 0, 0), rgb(255, 255, 255));&quot;&gt;personalizadas&lt;/span&gt;&lt;/font&gt;&lt;/li&gt;&lt;li&gt;&lt;font style=&quot;font-size: 18px;&quot;&gt;&lt;span style=&quot;background-color: transparent; color: light-dark(rgb(0, 0, 0), rgb(255, 255, 255));&quot;&gt;Permitir a utilização de coleções&amp;nbsp;&lt;/span&gt;&lt;span style=&quot;background-color: transparent; color: light-dark(rgb(0, 0, 0), rgb(255, 255, 255));&quot;&gt;pré-criadas&lt;/span&gt;&lt;/font&gt;&lt;/li&gt;&lt;li&gt;&lt;font style=&quot;font-size: 18px;&quot;&gt;&lt;span style=&quot;background-color: transparent; color: light-dark(rgb(0, 0, 0), rgb(255, 255, 255));&quot;&gt;Permitir o gerenciamento total&amp;nbsp;&lt;/span&gt;&lt;span style=&quot;background-color: transparent; color: light-dark(rgb(0, 0, 0), rgb(255, 255, 255));&quot;&gt;dos dados do usuário&lt;/span&gt;&lt;/font&gt;&lt;/li&gt;&lt;li&gt;&lt;font style=&quot;font-size: 18px;&quot;&gt;&lt;span style=&quot;background-color: transparent; color: light-dark(rgb(0, 0, 0), rgb(255, 255, 255));&quot;&gt;Utilizar dados de APIs externas&amp;nbsp;&lt;/span&gt;&lt;span style=&quot;background-color: transparent; color: light-dark(rgb(0, 0, 0), rgb(255, 255, 255));&quot;&gt;para preencher os dados das&amp;nbsp;&lt;/span&gt;&lt;span style=&quot;background-color: transparent; color: light-dark(rgb(0, 0, 0), rgb(255, 255, 255));&quot;&gt;coleções pré-criadas&lt;/span&gt;&lt;/font&gt;&lt;/li&gt;&lt;/ul&gt;&lt;/div&gt;" style="text;html=1;whiteSpace=wrap;overflow=hidden;rounded=0;spacing=2;fontSize=16;" vertex="1" parent="1">
          <mxGeometry x="680" y="83" width="463" height="189" as="geometry" />
        </mxCell>
        <mxCell id="ezhQoP1_snbLGTf0vXiV-6" value="" style="rounded=0;whiteSpace=wrap;html=1;" vertex="1" parent="1">
          <mxGeometry x="416" y="355" width="117" height="410" as="geometry" />
        </mxCell>
        <mxCell id="ezhQoP1_snbLGTf0vXiV-9" value="" style="rounded=0;whiteSpace=wrap;html=1;" vertex="1" parent="1">
          <mxGeometry x="613" y="355" width="117" height="410" as="geometry" />
        </mxCell>
        <mxCell id="ezhQoP1_snbLGTf0vXiV-11" value="" style="rounded=0;whiteSpace=wrap;html=1;" vertex="1" parent="1">
          <mxGeometry x="810" y="355" width="117" height="410" as="geometry" />
        </mxCell>
        <mxCell id="ezhQoP1_snbLGTf0vXiV-13" value="" style="rounded=0;whiteSpace=wrap;html=1;" vertex="1" parent="1">
          <mxGeometry x="1007" y="355" width="117" height="410" as="geometry" />
        </mxCell>
        <mxCell id="m0Cvr_eg9KHCXB12ICFs-1" value="Camada de Apresentação" style="text;html=1;align=center;verticalAlign=middle;whiteSpace=wrap;rounded=0;fontSize=15;" vertex="1" parent="1">
          <mxGeometry x="413" y="314" width="123" height="33" as="geometry" />
        </mxCell>
        <mxCell id="m0Cvr_eg9KHCXB12ICFs-2" value="Camada de Negócios" style="text;html=1;align=center;verticalAlign=middle;whiteSpace=wrap;rounded=0;fontSize=15;" vertex="1" parent="1">
          <mxGeometry x="610" y="314" width="123" height="33" as="geometry" />
        </mxCell>
        <mxCell id="m0Cvr_eg9KHCXB12ICFs-3" value="Camada de Persistência" style="text;html=1;align=center;verticalAlign=middle;whiteSpace=wrap;rounded=0;fontSize=15;" vertex="1" parent="1">
          <mxGeometry x="807" y="314" width="123" height="33" as="geometry" />
        </mxCell>
        <mxCell id="m0Cvr_eg9KHCXB12ICFs-4" value="Camada de Dados" style="text;html=1;align=center;verticalAlign=middle;whiteSpace=wrap;rounded=0;fontSize=15;" vertex="1" parent="1">
          <mxGeometry x="1004" y="314" width="123" height="33" as="geometry" />
        </mxCell>
        <mxCell id="m0Cvr_eg9KHCXB12ICFs-31" value="" style="edgeStyle=orthogonalEdgeStyle;rounded=0;orthogonalLoop=1;jettySize=auto;html=1;fillColor=#f8cecc;strokeColor=#b85450;" edge="1" parent="1" source="m0Cvr_eg9KHCXB12ICFs-6" target="m0Cvr_eg9KHCXB12ICFs-21">
          <mxGeometry relative="1" as="geometry" />
        </mxCell>
        <mxCell id="m0Cvr_eg9KHCXB12ICFs-51" value="1. Preencher" style="edgeLabel;html=1;align=center;verticalAlign=middle;resizable=0;points=[];fontSize=9;" connectable="0" vertex="1" parent="m0Cvr_eg9KHCXB12ICFs-31">
          <mxGeometry x="-0.3084" y="1" relative="1" as="geometry">
            <mxPoint x="5" y="-6" as="offset" />
          </mxGeometry>
        </mxCell>
        <mxCell id="m0Cvr_eg9KHCXB12ICFs-6" value="Usuário sem Cadastro" style="shape=umlActor;verticalLabelPosition=bottom;verticalAlign=top;html=1;outlineConnect=0;fillColor=#f8cecc;strokeColor=#b85450;" vertex="1" parent="1">
          <mxGeometry x="317" y="387" width="30" height="60" as="geometry" />
        </mxCell>
        <mxCell id="m0Cvr_eg9KHCXB12ICFs-47" value="" style="edgeStyle=orthogonalEdgeStyle;rounded=0;orthogonalLoop=1;jettySize=auto;html=1;fillColor=#d5e8d4;strokeColor=#82b366;" edge="1" parent="1" source="m0Cvr_eg9KHCXB12ICFs-7" target="m0Cvr_eg9KHCXB12ICFs-27">
          <mxGeometry relative="1" as="geometry" />
        </mxCell>
        <mxCell id="m0Cvr_eg9KHCXB12ICFs-52" value="2. Preencher" style="edgeLabel;html=1;align=center;verticalAlign=middle;resizable=0;points=[];fontSize=9;" connectable="0" vertex="1" parent="m0Cvr_eg9KHCXB12ICFs-47">
          <mxGeometry x="-0.0854" y="2" relative="1" as="geometry">
            <mxPoint x="-2" y="-5" as="offset" />
          </mxGeometry>
        </mxCell>
        <mxCell id="m0Cvr_eg9KHCXB12ICFs-7" value="Usuário Cadastrado" style="shape=umlActor;verticalLabelPosition=bottom;verticalAlign=top;html=1;outlineConnect=0;fillColor=#d5e8d4;strokeColor=#82b366;" vertex="1" parent="1">
          <mxGeometry x="317" y="475" width="30" height="60" as="geometry" />
        </mxCell>
        <mxCell id="m0Cvr_eg9KHCXB12ICFs-15" value="&lt;font style=&quot;font-size: 28px;&quot;&gt;&lt;b&gt;Tópicos:&lt;/b&gt;&lt;/font&gt;&lt;div&gt;&lt;ul&gt;&lt;li&gt;Web&lt;/li&gt;&lt;li&gt;Big Data&lt;/li&gt;&lt;/ul&gt;&lt;/div&gt;" style="text;html=1;align=left;verticalAlign=middle;whiteSpace=wrap;rounded=0;fontSize=20;" vertex="1" parent="1">
          <mxGeometry x="37" y="108" width="150" height="130" as="geometry" />
        </mxCell>
        <mxCell id="m0Cvr_eg9KHCXB12ICFs-16" value="&lt;span style=&quot;font-size: 28px;&quot;&gt;&lt;b&gt;ADS41&lt;/b&gt;&lt;/span&gt;" style="text;html=1;align=left;verticalAlign=middle;whiteSpace=wrap;rounded=0;fontSize=20;" vertex="1" parent="1">
          <mxGeometry x="38" y="348.5" width="120" height="45" as="geometry" />
        </mxCell>
        <mxCell id="m0Cvr_eg9KHCXB12ICFs-17" value="Front-End - React" style="text;html=1;align=center;verticalAlign=middle;whiteSpace=wrap;rounded=0;fontSize=14;" vertex="1" parent="1">
          <mxGeometry x="409.5" y="773" width="130" height="40" as="geometry" />
        </mxCell>
        <mxCell id="m0Cvr_eg9KHCXB12ICFs-18" value="Back-End - Node.js e Express" style="text;html=1;align=center;verticalAlign=middle;whiteSpace=wrap;rounded=0;fontSize=14;" vertex="1" parent="1">
          <mxGeometry x="606.5" y="773" width="130" height="40" as="geometry" />
        </mxCell>
        <mxCell id="m0Cvr_eg9KHCXB12ICFs-19" value="Back-End - Mongoose" style="text;html=1;align=center;verticalAlign=middle;whiteSpace=wrap;rounded=0;fontSize=14;" vertex="1" parent="1">
          <mxGeometry x="803.5" y="773" width="130" height="40" as="geometry" />
        </mxCell>
        <mxCell id="m0Cvr_eg9KHCXB12ICFs-20" value="Banco de Dados - MongoDB" style="text;html=1;align=center;verticalAlign=middle;whiteSpace=wrap;rounded=0;fontSize=14;" vertex="1" parent="1">
          <mxGeometry x="1000.5" y="773" width="130" height="40" as="geometry" />
        </mxCell>
        <mxCell id="m0Cvr_eg9KHCXB12ICFs-55" style="rounded=0;orthogonalLoop=1;jettySize=auto;html=1;exitX=1;exitY=0.5;exitDx=0;exitDy=0;entryX=0;entryY=0.25;entryDx=0;entryDy=0;fillColor=#f8cecc;strokeColor=#b85450;" edge="1" parent="1" source="m0Cvr_eg9KHCXB12ICFs-21" target="m0Cvr_eg9KHCXB12ICFs-26">
          <mxGeometry relative="1" as="geometry" />
        </mxCell>
        <mxCell id="m0Cvr_eg9KHCXB12ICFs-56" value="1.1 Validar" style="edgeLabel;html=1;align=center;verticalAlign=middle;resizable=0;points=[];rotation=0;fontSize=9;" connectable="0" vertex="1" parent="m0Cvr_eg9KHCXB12ICFs-55">
          <mxGeometry x="0.0378" relative="1" as="geometry">
            <mxPoint x="-2" y="-3" as="offset" />
          </mxGeometry>
        </mxCell>
        <mxCell id="m0Cvr_eg9KHCXB12ICFs-21" value="Formulário de Cadastro" style="html=1;whiteSpace=wrap;container=0;fillColor=#f8cecc;strokeColor=#b85450;" vertex="1" parent="1">
          <mxGeometry x="429.5" y="392" width="90" height="50" as="geometry" />
        </mxCell>
        <mxCell id="m0Cvr_eg9KHCXB12ICFs-40" style="rounded=0;orthogonalLoop=1;jettySize=auto;html=1;exitX=1;exitY=0.25;exitDx=0;exitDy=0;entryX=0;entryY=0.5;entryDx=0;entryDy=0;fillColor=#f8cecc;strokeColor=#b85450;" edge="1" parent="1" source="m0Cvr_eg9KHCXB12ICFs-26" target="m0Cvr_eg9KHCXB12ICFs-30">
          <mxGeometry relative="1" as="geometry" />
        </mxCell>
        <mxCell id="m0Cvr_eg9KHCXB12ICFs-58" value="1.2 Persistir" style="edgeLabel;html=1;align=center;verticalAlign=middle;resizable=0;points=[];fontSize=9;rotation=0;" connectable="0" vertex="1" parent="m0Cvr_eg9KHCXB12ICFs-40">
          <mxGeometry x="-0.011" relative="1" as="geometry">
            <mxPoint x="-1" as="offset" />
          </mxGeometry>
        </mxCell>
        <mxCell id="m0Cvr_eg9KHCXB12ICFs-41" style="rounded=0;orthogonalLoop=1;jettySize=auto;html=1;exitX=1;exitY=0.75;exitDx=0;exitDy=0;entryX=0;entryY=0.25;entryDx=0;entryDy=0;fillColor=#d5e8d4;strokeColor=#82b366;" edge="1" parent="1" source="m0Cvr_eg9KHCXB12ICFs-26" target="m0Cvr_eg9KHCXB12ICFs-35">
          <mxGeometry relative="1" as="geometry" />
        </mxCell>
        <mxCell id="m0Cvr_eg9KHCXB12ICFs-59" value="&lt;font style=&quot;font-size: 9px;&quot;&gt;2.2 Persistir&lt;/font&gt;" style="edgeLabel;html=1;align=center;verticalAlign=middle;resizable=0;points=[];rotation=0;" connectable="0" vertex="1" parent="m0Cvr_eg9KHCXB12ICFs-41">
          <mxGeometry x="-0.2128" y="2" relative="1" as="geometry">
            <mxPoint x="10" y="2" as="offset" />
          </mxGeometry>
        </mxCell>
        <mxCell id="m0Cvr_eg9KHCXB12ICFs-26" value="Validação dos Dados" style="html=1;whiteSpace=wrap;container=0;strokeColor=#b85450;gradientDirection=south;fillColor=light-dark(#f8cecc, #512D2B);gradientColor=light-dark(#d5e8d4, #1F2F1E);" vertex="1" parent="1">
          <mxGeometry x="626.5" y="425" width="90" height="50" as="geometry" />
        </mxCell>
        <mxCell id="m0Cvr_eg9KHCXB12ICFs-36" style="rounded=0;orthogonalLoop=1;jettySize=auto;html=1;exitX=1;exitY=0.5;exitDx=0;exitDy=0;entryX=0;entryY=0.75;entryDx=0;entryDy=0;fillColor=#d5e8d4;strokeColor=#82b366;" edge="1" parent="1" source="m0Cvr_eg9KHCXB12ICFs-27" target="m0Cvr_eg9KHCXB12ICFs-26">
          <mxGeometry relative="1" as="geometry" />
        </mxCell>
        <mxCell id="m0Cvr_eg9KHCXB12ICFs-54" value="&lt;font&gt;2.1 Validar&lt;/font&gt;" style="edgeLabel;html=1;align=center;verticalAlign=middle;resizable=0;points=[];rotation=0;fontSize=9;" connectable="0" vertex="1" parent="m0Cvr_eg9KHCXB12ICFs-36">
          <mxGeometry x="0.0196" y="1" relative="1" as="geometry">
            <mxPoint x="1" y="-5" as="offset" />
          </mxGeometry>
        </mxCell>
        <mxCell id="m0Cvr_eg9KHCXB12ICFs-27" value="Formulário de Login" style="html=1;whiteSpace=wrap;container=0;fillColor=#d5e8d4;strokeColor=#82b366;" vertex="1" parent="1">
          <mxGeometry x="429.5" y="480" width="90" height="50" as="geometry" />
        </mxCell>
        <mxCell id="m0Cvr_eg9KHCXB12ICFs-129" style="rounded=0;orthogonalLoop=1;jettySize=auto;html=1;exitX=1;exitY=0.5;exitDx=0;exitDy=0;entryX=0;entryY=0.5;entryDx=0;entryDy=0;fillColor=#dae8fc;strokeColor=#6c8ebf;" edge="1" parent="1" source="m0Cvr_eg9KHCXB12ICFs-28" target="m0Cvr_eg9KHCXB12ICFs-121">
          <mxGeometry relative="1" as="geometry" />
        </mxCell>
        <mxCell id="7NN4UGvonDvJfoyyVv01-6" value="3.1 Aplicar" style="edgeLabel;html=1;align=center;verticalAlign=middle;resizable=0;points=[];fontSize=9;" connectable="0" vertex="1" parent="m0Cvr_eg9KHCXB12ICFs-129">
          <mxGeometry x="-0.0674" y="2" relative="1" as="geometry">
            <mxPoint as="offset" />
          </mxGeometry>
        </mxCell>
        <mxCell id="m0Cvr_eg9KHCXB12ICFs-28" value="Formulário Gerenciamento de Coleções" style="html=1;whiteSpace=wrap;container=0;fillColor=#dae8fc;strokeColor=#6c8ebf;" vertex="1" parent="1">
          <mxGeometry x="429.5" y="585" width="90" height="50" as="geometry" />
        </mxCell>
        <mxCell id="m0Cvr_eg9KHCXB12ICFs-29" value="Banco de Usuários" style="shape=datastore;whiteSpace=wrap;html=1;gradientColor=light-dark(#d5e8d4, #1F2F1E);fillColor=light-dark(#f8cecc, #512D2B);strokeColor=light-dark(#b85550, #ededed);" vertex="1" parent="1">
          <mxGeometry x="1029.75" y="415" width="71.5" height="70" as="geometry" />
        </mxCell>
        <mxCell id="m0Cvr_eg9KHCXB12ICFs-43" style="rounded=0;orthogonalLoop=1;jettySize=auto;html=1;exitX=1;exitY=0.5;exitDx=0;exitDy=0;entryX=0;entryY=0.3;entryDx=0;entryDy=0;fillColor=#f8cecc;strokeColor=#b85450;" edge="1" parent="1" source="m0Cvr_eg9KHCXB12ICFs-30" target="m0Cvr_eg9KHCXB12ICFs-29">
          <mxGeometry relative="1" as="geometry" />
        </mxCell>
        <mxCell id="m0Cvr_eg9KHCXB12ICFs-61" value="&lt;font style=&quot;font-size: 9px;&quot;&gt;1.3 Armazenar&lt;/font&gt;" style="edgeLabel;html=1;align=center;verticalAlign=middle;resizable=0;points=[];" connectable="0" vertex="1" parent="m0Cvr_eg9KHCXB12ICFs-43">
          <mxGeometry x="0.0243" y="1" relative="1" as="geometry">
            <mxPoint x="-7" y="-5" as="offset" />
          </mxGeometry>
        </mxCell>
        <mxCell id="m0Cvr_eg9KHCXB12ICFs-30" value="Armazenamento dos Dados" style="html=1;whiteSpace=wrap;container=0;gradientDirection=north;fillColor=#f8cecc;strokeColor=#b85450;" vertex="1" parent="1">
          <mxGeometry x="823.5" y="392" width="90" height="50" as="geometry" />
        </mxCell>
        <mxCell id="m0Cvr_eg9KHCXB12ICFs-44" style="rounded=0;orthogonalLoop=1;jettySize=auto;html=1;exitX=1;exitY=0.5;exitDx=0;exitDy=0;entryX=0;entryY=0.7;entryDx=0;entryDy=0;fillColor=#d5e8d4;strokeColor=#82b366;" edge="1" parent="1" source="m0Cvr_eg9KHCXB12ICFs-35" target="m0Cvr_eg9KHCXB12ICFs-29">
          <mxGeometry relative="1" as="geometry" />
        </mxCell>
        <mxCell id="m0Cvr_eg9KHCXB12ICFs-62" value="&lt;font style=&quot;font-size: 9px;&quot;&gt;2.3 Verificar&lt;/font&gt;" style="edgeLabel;html=1;align=center;verticalAlign=middle;resizable=0;points=[];rotation=0;" connectable="0" vertex="1" parent="m0Cvr_eg9KHCXB12ICFs-44">
          <mxGeometry x="0.0578" y="1" relative="1" as="geometry">
            <mxPoint x="-9" y="2" as="offset" />
          </mxGeometry>
        </mxCell>
        <mxCell id="m0Cvr_eg9KHCXB12ICFs-35" value="Autenticação do Usuário" style="html=1;whiteSpace=wrap;container=0;fillColor=#d5e8d4;strokeColor=#82b366;" vertex="1" parent="1">
          <mxGeometry x="823.5" y="480" width="90" height="50" as="geometry" />
        </mxCell>
        <mxCell id="m0Cvr_eg9KHCXB12ICFs-120" value="" style="edgeStyle=orthogonalEdgeStyle;rounded=0;orthogonalLoop=1;jettySize=auto;html=1;fillColor=#dae8fc;strokeColor=#6c8ebf;" edge="1" parent="1" source="m0Cvr_eg9KHCXB12ICFs-117" target="m0Cvr_eg9KHCXB12ICFs-28">
          <mxGeometry relative="1" as="geometry" />
        </mxCell>
        <mxCell id="7NN4UGvonDvJfoyyVv01-1" value="3. Preencher" style="edgeLabel;html=1;align=center;verticalAlign=middle;resizable=0;points=[];fontSize=9;" connectable="0" vertex="1" parent="m0Cvr_eg9KHCXB12ICFs-120">
          <mxGeometry x="0.022" y="2" relative="1" as="geometry">
            <mxPoint x="-5" y="-5" as="offset" />
          </mxGeometry>
        </mxCell>
        <mxCell id="m0Cvr_eg9KHCXB12ICFs-117" value="Usuário - Gerenciar Coleções" style="shape=umlActor;verticalLabelPosition=bottom;verticalAlign=top;html=1;outlineConnect=0;fillColor=#dae8fc;strokeColor=#6c8ebf;" vertex="1" parent="1">
          <mxGeometry x="317" y="580" width="30" height="60" as="geometry" />
        </mxCell>
        <mxCell id="m0Cvr_eg9KHCXB12ICFs-136" style="rounded=0;orthogonalLoop=1;jettySize=auto;html=1;exitX=1;exitY=0.5;exitDx=0;exitDy=0;entryX=0;entryY=0.25;entryDx=0;entryDy=0;fillColor=#dae8fc;strokeColor=#6c8ebf;" edge="1" parent="1" source="m0Cvr_eg9KHCXB12ICFs-121" target="m0Cvr_eg9KHCXB12ICFs-130">
          <mxGeometry relative="1" as="geometry" />
        </mxCell>
        <mxCell id="7NN4UGvonDvJfoyyVv01-8" value="3.2 Persistir" style="edgeLabel;html=1;align=center;verticalAlign=middle;resizable=0;points=[];fontSize=9;" connectable="0" vertex="1" parent="m0Cvr_eg9KHCXB12ICFs-136">
          <mxGeometry x="-0.1709" y="-1" relative="1" as="geometry">
            <mxPoint x="5" y="-2" as="offset" />
          </mxGeometry>
        </mxCell>
        <mxCell id="KI0JJ_9suTvZutJou8xO-3" style="rounded=0;orthogonalLoop=1;jettySize=auto;html=1;exitX=1;exitY=0.75;exitDx=0;exitDy=0;entryX=0;entryY=0.75;entryDx=0;entryDy=0;fillColor=#ffe6cc;strokeColor=#d79b00;" edge="1" parent="1" source="m0Cvr_eg9KHCXB12ICFs-121" target="m0Cvr_eg9KHCXB12ICFs-130">
          <mxGeometry relative="1" as="geometry">
            <mxPoint x="823.5" y="685" as="targetPoint" />
          </mxGeometry>
        </mxCell>
        <mxCell id="7NN4UGvonDvJfoyyVv01-7" value="4.3 Persistir" style="edgeLabel;html=1;align=center;verticalAlign=middle;resizable=0;points=[];fontSize=9;" connectable="0" vertex="1" parent="KI0JJ_9suTvZutJou8xO-3">
          <mxGeometry x="-0.4194" y="2" relative="1" as="geometry">
            <mxPoint x="17" y="12" as="offset" />
          </mxGeometry>
        </mxCell>
        <mxCell id="m0Cvr_eg9KHCXB12ICFs-121" value="Aplicar Regras de Negócios (Limite de coleções e itens, Privacidade da coleção, etc)" style="html=1;whiteSpace=wrap;container=0;fillColor=#dae8fc;strokeColor=#6c8ebf;" vertex="1" parent="1">
          <mxGeometry x="626.5" y="520" width="93.5" height="105" as="geometry" />
        </mxCell>
        <mxCell id="KI0JJ_9suTvZutJou8xO-1" style="edgeStyle=orthogonalEdgeStyle;rounded=0;orthogonalLoop=1;jettySize=auto;html=1;exitX=0.5;exitY=0;exitDx=0;exitDy=0;entryX=0.5;entryY=1;entryDx=0;entryDy=0;fillColor=#ffe6cc;strokeColor=#d79b00;" edge="1" parent="1" source="m0Cvr_eg9KHCXB12ICFs-122" target="m0Cvr_eg9KHCXB12ICFs-121">
          <mxGeometry relative="1" as="geometry" />
        </mxCell>
        <mxCell id="m0Cvr_eg9KHCXB12ICFs-122" value="Requisitar dados em APIs externas" style="html=1;whiteSpace=wrap;container=0;fillColor=#ffe6cc;strokeColor=#d79b00;" vertex="1" parent="1">
          <mxGeometry x="628.25" y="652.5" width="90" height="47.5" as="geometry" />
        </mxCell>
        <mxCell id="m0Cvr_eg9KHCXB12ICFs-126" value="" style="rounded=0;orthogonalLoop=1;jettySize=auto;html=1;fillColor=#ffe6cc;strokeColor=#d79b00;" edge="1" parent="1" source="m0Cvr_eg9KHCXB12ICFs-123" target="m0Cvr_eg9KHCXB12ICFs-122">
          <mxGeometry relative="1" as="geometry" />
        </mxCell>
        <mxCell id="7NN4UGvonDvJfoyyVv01-3" value="4.1.1 Requisitar" style="edgeLabel;html=1;align=center;verticalAlign=middle;resizable=0;points=[];fontSize=9;" connectable="0" vertex="1" parent="m0Cvr_eg9KHCXB12ICFs-126">
          <mxGeometry x="-0.2519" y="1" relative="1" as="geometry">
            <mxPoint x="13" y="-3" as="offset" />
          </mxGeometry>
        </mxCell>
        <mxCell id="m0Cvr_eg9KHCXB12ICFs-135" value="" style="rounded=0;orthogonalLoop=1;jettySize=auto;html=1;fillColor=#ffe6cc;strokeColor=#d79b00;" edge="1" parent="1" source="m0Cvr_eg9KHCXB12ICFs-123" target="m0Cvr_eg9KHCXB12ICFs-134">
          <mxGeometry relative="1" as="geometry" />
        </mxCell>
        <mxCell id="7NN4UGvonDvJfoyyVv01-4" value="4.1.2 Confirmar" style="edgeLabel;html=1;align=center;verticalAlign=middle;resizable=0;points=[];fontSize=9;" connectable="0" vertex="1" parent="m0Cvr_eg9KHCXB12ICFs-135">
          <mxGeometry x="0.0456" y="2" relative="1" as="geometry">
            <mxPoint x="-5" y="3" as="offset" />
          </mxGeometry>
        </mxCell>
        <mxCell id="m0Cvr_eg9KHCXB12ICFs-123" value="Formulário Gerenciamento de Itens" style="html=1;whiteSpace=wrap;container=0;fillColor=#ffe6cc;strokeColor=#d79b00;" vertex="1" parent="1">
          <mxGeometry x="429.5" y="680" width="90" height="50" as="geometry" />
        </mxCell>
        <mxCell id="m0Cvr_eg9KHCXB12ICFs-125" value="" style="edgeStyle=orthogonalEdgeStyle;rounded=0;orthogonalLoop=1;jettySize=auto;html=1;fillColor=#ffe6cc;strokeColor=#d79b00;" edge="1" parent="1" source="m0Cvr_eg9KHCXB12ICFs-124" target="m0Cvr_eg9KHCXB12ICFs-123">
          <mxGeometry relative="1" as="geometry" />
        </mxCell>
        <mxCell id="7NN4UGvonDvJfoyyVv01-2" value="4. Preencher" style="edgeLabel;html=1;align=center;verticalAlign=middle;resizable=0;points=[];fontSize=9;" connectable="0" vertex="1" parent="m0Cvr_eg9KHCXB12ICFs-125">
          <mxGeometry x="-0.1396" relative="1" as="geometry">
            <mxPoint x="1" y="-7" as="offset" />
          </mxGeometry>
        </mxCell>
        <mxCell id="m0Cvr_eg9KHCXB12ICFs-124" value="Usuário - Gerenciar Itens" style="shape=umlActor;verticalLabelPosition=bottom;verticalAlign=top;html=1;outlineConnect=0;fillColor=#ffe6cc;strokeColor=#d79b00;" vertex="1" parent="1">
          <mxGeometry x="317" y="675" width="30" height="60" as="geometry" />
        </mxCell>
        <mxCell id="m0Cvr_eg9KHCXB12ICFs-137" style="rounded=0;orthogonalLoop=1;jettySize=auto;html=1;exitX=1;exitY=0.25;exitDx=0;exitDy=0;entryX=0;entryY=0.5;entryDx=0;entryDy=0;fillColor=#dae8fc;strokeColor=#6c8ebf;" edge="1" parent="1" source="m0Cvr_eg9KHCXB12ICFs-130" target="m0Cvr_eg9KHCXB12ICFs-132">
          <mxGeometry relative="1" as="geometry" />
        </mxCell>
        <mxCell id="7NN4UGvonDvJfoyyVv01-9" value="3.3 Armazenar" style="edgeLabel;html=1;align=center;verticalAlign=middle;resizable=0;points=[];fontSize=9;" connectable="0" vertex="1" parent="m0Cvr_eg9KHCXB12ICFs-137">
          <mxGeometry x="0.0666" relative="1" as="geometry">
            <mxPoint x="-11" y="4" as="offset" />
          </mxGeometry>
        </mxCell>
        <mxCell id="m0Cvr_eg9KHCXB12ICFs-130" value="Armazenamento dos Dados" style="html=1;whiteSpace=wrap;container=0;fillColor=light-dark(#dae8fc, #1d293b);strokeColor=light-dark(#6c8ebf, #5c79a3);gradientColor=light-dark(#ffe6cc, #36210A);" vertex="1" parent="1">
          <mxGeometry x="823.5" y="610" width="90" height="50" as="geometry" />
        </mxCell>
        <mxCell id="m0Cvr_eg9KHCXB12ICFs-140" value="" style="rounded=0;orthogonalLoop=1;jettySize=auto;html=1;fillColor=#ffe6cc;strokeColor=#d79b00;exitX=1;exitY=0.75;exitDx=0;exitDy=0;" edge="1" parent="1" source="m0Cvr_eg9KHCXB12ICFs-130" target="m0Cvr_eg9KHCXB12ICFs-133">
          <mxGeometry relative="1" as="geometry">
            <mxPoint x="913.5" y="682.715736040609" as="sourcePoint" />
          </mxGeometry>
        </mxCell>
        <mxCell id="7NN4UGvonDvJfoyyVv01-10" value="4.4 Armazenar" style="edgeLabel;html=1;align=center;verticalAlign=middle;resizable=0;points=[];fontSize=9;" connectable="0" vertex="1" parent="m0Cvr_eg9KHCXB12ICFs-140">
          <mxGeometry x="0.0689" y="-1" relative="1" as="geometry">
            <mxPoint x="-9" y="-3" as="offset" />
          </mxGeometry>
        </mxCell>
        <mxCell id="m0Cvr_eg9KHCXB12ICFs-132" value="Banco de Coleções" style="shape=datastore;whiteSpace=wrap;html=1;fillColor=#dae8fc;strokeColor=#6c8ebf;" vertex="1" parent="1">
          <mxGeometry x="1029.75" y="540" width="71.5" height="70" as="geometry" />
        </mxCell>
        <mxCell id="m0Cvr_eg9KHCXB12ICFs-133" value="Banco de Itens" style="shape=datastore;whiteSpace=wrap;html=1;fillColor=#ffe6cc;strokeColor=#d79b00;" vertex="1" parent="1">
          <mxGeometry x="1029.75" y="640" width="71.5" height="70" as="geometry" />
        </mxCell>
        <mxCell id="KI0JJ_9suTvZutJou8xO-2" style="edgeStyle=orthogonalEdgeStyle;rounded=0;orthogonalLoop=1;jettySize=auto;html=1;exitX=1;exitY=0.5;exitDx=0;exitDy=0;entryX=0.75;entryY=1;entryDx=0;entryDy=0;fillColor=#ffe6cc;strokeColor=#d79b00;" edge="1" parent="1" source="m0Cvr_eg9KHCXB12ICFs-134" target="m0Cvr_eg9KHCXB12ICFs-121">
          <mxGeometry relative="1" as="geometry">
            <Array as="points">
              <mxPoint x="750" y="734" />
              <mxPoint x="750" y="640" />
              <mxPoint x="697" y="640" />
            </Array>
          </mxGeometry>
        </mxCell>
        <mxCell id="7NN4UGvonDvJfoyyVv01-5" value="4.2 Aplicar" style="edgeLabel;html=1;align=center;verticalAlign=middle;resizable=0;points=[];fontSize=8;" connectable="0" vertex="1" parent="KI0JJ_9suTvZutJou8xO-2">
          <mxGeometry x="0.6411" y="1" relative="1" as="geometry">
            <mxPoint x="-23" y="5" as="offset" />
          </mxGeometry>
        </mxCell>
        <mxCell id="m0Cvr_eg9KHCXB12ICFs-134" value="Usar dados preenchidos manualmente" style="html=1;whiteSpace=wrap;container=0;fillColor=#ffe6cc;strokeColor=#d79b00;" vertex="1" parent="1">
          <mxGeometry x="628.25" y="710" width="90" height="47.5" as="geometry" />
        </mxCell>
      </root>
    </mxGraphModel>
  </diagram>
</mxfile>
